# AST/ASF file generated using VICON BodyLanguage
# -----------------------------------------------
:version 1.10
:name VICON
:units
  mass 1.0
  length 0.45
  angle deg
:documentation
   .ast/.asf automatically generated from VICON data using
   VICON BodyBuilder and BodyLanguage model FoxedUp or BRILLIANT.MOD
:root
   order TX TY TZ RX RY RZ
   axis XYZ
   position 0 0 0  
   orientation 0 0 0 
:bonedata
  begin
     id 1 
     name lhipjoint
     direction 0.660183 -0.676772 0.325788 
     length 2.75133 
     axis 0 0 0  XYZ
  end
  begin
     id 2 
     name lfemur
     direction 0.34202 -0.939693 0  
     length 7.70317  
     axis 0 0 20  XYZ
    dof rx ry rz
    limits (-160.0 20.0)
           (-70.0 70.0)
           (-60.0 70.0)
  end
  begin
     id 3 
     name ltibia
     direction 0.342105 -0.939662 0   
     length 7.18701   
     axis 0 0 20   XYZ
    dof rx
    limits (-10.0 170.0)
  end
  begin
     id 4 
     name lfoot
     direction 0.14163 -0.389126 0.910232   
     length 2.41719   
     axis -90 7.62852e-016 20   XYZ
    dof rx rz
    limits (-45.0 90.0)
           (-70.0 20.0)
  end
  begin
     id 5 
     name ltoes
     direction 1.53533e-011 -4.21926e-011 1   
     length 1.18611   
     axis -90 7.62852e-016 20   XYZ
    dof rx
    limits (-90.0 20.0)
  end
  begin
     id 6 
     name rhipjoint
     direction -0.6658 -0.67229 0.323631   
     length 2.76968  
     axis 0 0 0  XYZ 
  end
  begin
     id 7 
     name rfemur
     direction -0.34202 -0.939693 0   
     length 7.92547   
     axis 0 0 -20   XYZ
    dof rx ry rz
    limits (-160.0 20.0)
           (-70.0 70.0)
           (-70.0 60.0)
  end
  begin
     id 8 
     name rtibia
     direction -0.342022 -0.939692 0   
     length 7.22641   
     axis 0 0 -20   XYZ
    dof rx
    limits (-10.0 170.0)
 end
 begin
     id 9 
     name rfoot
     direction -0.105675 -0.29034 0.951071   
     length 2.48149  
     axis -90 -7.62852e-016 -20   XYZ
    dof rx rz
    limits (-45.0 90.0)
           (-20.0 70.0)
  end
  begin
     id 10 
     name rtoes
     direction -1.5349e-011 -4.21859e-011 1   
     length 1.23343   
     axis -90 -7.62852e-016 -20   XYZ
    dof rx
    limits (-90.0 20.0)
  end
  begin
     id 11 
     name lowerback
     direction 0.0104173 0.993624 -0.112266   
     length 2.00527   
     axis 0 0 0   XYZ
    dof rx ry rz
    limits (-20.0 45.0)
           (-30.0 30.0)
           (-30.0 30.0)
  end
  begin
     id 12 
     name upperback
     direction 0.00733149 0.999856 -0.0152913   
     length 2.01385   
     axis 0 0 0   XYZ
    dof rx ry rz
    limits (-20.0 45.0)
           (-30.0 30.0)
           (-30.0 30.0)
  end
  begin
     id 13 
     name thorax
     direction 0.0026304 0.999318 0.036841   
     length 2.03734   
     axis 0 0 0   XYZ
    dof rx ry rz
    limits (-20.0 45.0)
           (-30.0 30.0)
           (-30.0 30.0)
  end
  begin
     id 14 
     name lowerneck
     direction 0.0293154 0.998757 0.0403082   
     length 1.65303   
     axis 0 0 0   XYZ
    dof rx ry rz
    limits (-20.0 45.0)
           (-30.0 30.0)
           (-30.0 30.0)
  end
  begin
     id 15 
     name upperneck
     direction -0.0376619 0.998184 -0.0470083   
     length 1.60926   
     axis 0 0 0   XYZ
    dof rx ry rz
    limits (-20.0 45.0)
           (-30.0 30.0)
           (-30.0 30.0)
  end
  begin
     id 16
     name head
     direction -0.0170133 0.999635 -0.0209778  
     length 1.73625  
     axis 0 0 0   XYZ
    dof rx ry rz
    limits (-20.0 45.0)
           (-30.0 30.0)
           (-30.0 30.0)
  end
  begin
     id 17 
     name lclavicle
     direction 0.919857 0.39181 -0.0186333  
     length 3.75313  
     axis 0 0 0   XYZ
    dof ry rz
    limits (-20.0 10.0)
           (0.0 20.0)
  end
  begin
     id 18 
     name lhumerus
     direction 1 -4.48988e-011 1.44029e-027   
     length 5.49313   
     axis 180 -30 -90   XYZ
    dof rx ry rz
    limits (-60.0 90.0)
           (-90.0 90.0)
           (-90.0 90.0)
  end
  begin
     id 19
     name lradius
     direction 1 -4.48924e-011 7.46281e-027   
     length 3.29037   
     axis 180 -30 -90   XYZ
    dof rx
    limits (-10.0 170.0)
  end
  begin
     id 20
     name lwrist
     direction 1 -4.48955e-011 2.19879e-026   
     length 1.64519   
     axis -1.34358e-014 90 90   XYZ
    dof ry
    limits (-180.0 0.0)
 end
  begin
     id 21 
     name lhand
     direction 1 -4.48978e-011 4.39747e-026   
     length 0.729656   
     axis -2.80598e-014 90 90   XYZ
    dof rx rz
    limits (-90.0 90.0)
           (-45.0 45.0)
  end
  begin
     id 22 
     name lfingers
     direction 1 -4.49071e-011 8.79411e-026   
     length 0.588268   
     axis -5.61193e-014 90 90   XYZ
    dof rx
    limits (0.0 90.0)
  end
  begin
     id 23
     name lthumb
     direction 0.707107 -6.34817e-011 0.707107   
     length 0.844638   
     axis -90 45 -9.86923e-015   XYZ
    dof rx rz
    limits (-45.0 45.0)
           (-45.0 45.0)
  end
  begin
     id 24 
     name rclavicle
     direction -0.919898 0.388279 0.0550233   
     length 3.7171  
     axis 0 0 0   XYZ 
    dof ry rz
    limits (-10.0 20.0)
           (-20.0 0.0)
  end
  begin
     id 25 
     name rhumerus
     direction -1 -4.48968e-011 9.98372e-028  
     length 5.23684   
     axis 180 30 90   XYZ
    dof rx ry rz
    limits (-90.0 60.0)
           (-90.0 90.0)
           (-90.0 90.0)
  end
  begin
     id 26 
     name rradius
     direction -1 -4.48956e-011 1.01023e-026   
     length 3.38251   
     axis 180 30 90   XYZ
    dof rx
    limits (-10.0 170.0)
  end
  begin
     id 27 
     name rwrist
     direction -1 -4.4892e-011 2.19886e-026   
     length 1.69126   
     axis -1.34358e-014 -90 -90   XYZ
    dof ry
    limits (-180.0 0.0)
  end
  begin
     id 28
     name rhand
     direction -1 -4.49024e-011 4.39727e-026   
     length 0.691454   
     axis -2.80598e-014 -90 -90   XYZ
    dof rx rz
    limits (-90.0 90.0)
           (-45.0 45.0)
  end
  begin
     id 29
     name rfingers
     direction -1 -4.49097e-011 8.79388e-026   
     length 0.557468   
     axis -5.61193e-014 -90 -90   XYZ
    dof rx
    limits (0.0 90.0)
  end
  begin
     id 30
     name rthumb
     direction -0.707107 -6.34938e-011 0.707107   
     length 0.800416   
     axis -90 -45 9.86923e-015   XYZ
    dof rx rz
    limits (-45.0 45.0)
           (-45.0 45.0)
  end
:hierarchy
  begin
    root lhipjoint rhipjoint lowerback
    lhipjoint lfemur
    lfemur ltibia
    ltibia lfoot
    lfoot ltoes
    rhipjoint rfemur
    rfemur rtibia
    rtibia rfoot
    rfoot rtoes
    lowerback upperback
    upperback thorax
    thorax lowerneck lclavicle rclavicle
    lowerneck upperneck
    upperneck head
    lclavicle lhumerus
    lhumerus lradius
    lradius lwrist
    lwrist lhand lthumb
    lhand lfingers
    rclavicle rhumerus
    rhumerus rradius
    rradius rwrist
    rwrist rhand rthumb
    rhand rfingers
  end

#!OML:ASF H:\BabyWalks\Project 1\Capture day 1\Session 1\baby.ASF
:FULLY-SPECIFIED
:DEGREES
148
root -36.4394 17.4579 -1.61691 -26.7293 82.8288 -31.8177
lowerback 15.2603 -0.681312 -0.285476
upperback 5.20131 -0.606493 2.01648
thorax -3.01639 -0.210196 2.37787
lowerneck -0.537522 3.09927 2.04096
upperneck -7.63652 3.95795 -5.33531
head -2.16839 2.09834 -2.12329
rclavicle 3.86388e-014 -2.5345e-015
rhumerus -47.6936 14.229 -84.924
rradius 41.2712
rwrist 1.7189
rhand -9.57659 -15.6964
rfingers 7.12502
rthumb 16.3913 -45.0238
lclavicle 3.86388e-014 -2.5345e-015
lhumerus -51.5477 -0.179368 82.5327
lradius 53.4703
lwrist 6.21514
lhand -1.22464 11.893
lfingers 7.12502
lthumb 24.4169 40.3571
rfemur -0.399061 11.5317 25.0928
rtibia 19.7836
rfoot -21.8025 -7.39417
rtoes -10.7022
lfemur -25.989 -2.77863 -11.6421
ltibia 37.9724
lfoot -21.3624 -9.20972
ltoes -3.05468
149
root -36.4229 17.4503 -1.61935 -28.1415 82.8446 -33.3605
lowerback 15.2932 -0.679978 -0.184304
upperback 5.21573 -0.587213 2.03243
thorax -3.02072 -0.199541 2.33427
lowerneck -0.55 3.01659 2.06261
upperneck -7.70995 3.85187 -5.23533
head -2.19581 2.0433 -2.09466
rclavicle -1.34925e-014 -1.82385e-014
rhumerus -47.6183 14.2028 -84.8972
rradius 41.3516
rwrist 1.68417
rhand -9.62148 -15.7558
rfingers 7.12502
rthumb 16.3481 -45.0868
lclavicle -1.34925e-014 -1.82385e-014
lhumerus -51.5255 -0.194435 82.4994
lradius 53.4742
lwrist 6.16956
lhand -1.179 11.9183
lfingers 7.12502
lthumb 24.4606 40.3765
rfemur -0.39736 11.4209 25.2488
rtibia 19.6754
rfoot -21.809 -7.46994
rtoes -10.9252
lfemur -26.2779 -2.7499 -11.4845
ltibia 38.3445
lfoot -21.6298 -9.38444
ltoes -2.77519
150
root -36.4038 17.4432 -1.62262 -29.4783 82.8516 -34.8281
lowerback 15.3157 -0.673742 -0.0925999
upperback 5.23245 -0.56357 2.0383
thorax -3.01719 -0.186838 2.28447
lowerneck -0.57072 2.92201 2.08293
upperneck -7.7651 3.73182 -5.10572
head -2.21665 1.98007 -2.05521
rclavicle 1.46604e-015 -1.32192e-014
rhumerus -47.5563 14.1868 -84.8858
rradius 41.4353
rwrist 1.64516
rhand -9.67633 -15.8167
rfingers 7.12502
rthumb 16.2953 -45.152
lclavicle 1.46604e-015 -1.32192e-014
lhumerus -51.4977 -0.197176 82.4486
lradius 53.4744
lwrist 6.10069
lhand -1.12744 11.9276
lfingers 7.12502
lthumb 24.51 40.3791
rfemur -0.383787 11.315 25.3927
rtibia 19.5515
rfoot -21.8059 -7.52589
rtoes -11.1173
lfemur -26.5452 -2.74184 -11.338
ltibia 38.7011
lfoot -21.9067 -9.53085
ltoes -2.50228
151
root -36.382 17.4364 -1.62648 -30.7718 82.8589 -36.2517
lowerback 15.3268 -0.662358 -0.0158376
upperback 5.25343 -0.535898 2.03639
thorax -3.00307 -0.172251 2.23405
lowerneck -0.612639 2.81056 2.10176
upperneck -7.79309 3.59155 -4.94073
head -2.22589 1.9052 -2.00244
rclavicle -3.08116e-015 -1.46107e-014
rhumerus -47.5078 14.1794 -84.888
rradius 41.5223
rwrist 1.60351
rhand -9.74815 -15.8679
rfingers 7.12502
rthumb 16.2262 -45.2088
lclavicle -3.08116e-015 -1.46107e-014
lhumerus -51.4567 -0.18903 82.3833
lradius 53.4708
lwrist 6.00697
lhand -1.07092 11.9244
lfingers 7.12502
lthumb 24.5642 40.3686
rfemur -0.353249 11.2174 25.5281
rtibia 19.4094
rfoot -21.7936 -7.58894
rtoes -11.3385
lfemur -26.7914 -2.76022 -11.2029
ltibia 39.0415
lfoot -22.1881 -9.64901
ltoes -2.23484
152
root -36.3572 17.4312 -1.63084 -32.0457 82.8726 -37.661
lowerback 15.3213 -0.646083 0.0443564
upperback 5.2751 -0.50498 2.02818
thorax -2.9793 -0.156244 2.18559
lowerneck -0.673597 2.67984 2.10848
upperneck -7.79076 3.4288 -4.72019
head -2.22321 1.81733 -1.928
rclavicle 1.71949e-014 -6.36111e-015
rhumerus -47.4793 14.1833 -84.9063
rradius 41.6185
rwrist 1.54645
rhand -9.82869 -15.9408
rfingers 7.12502
rthumb 16.1486 -45.2881
lclavicle 1.71949e-014 -6.36111e-015
lhumerus -51.403 -0.169594 82.3048
lradius 53.4619
lwrist 5.88746
lhand -1.01419 11.9148
lfingers 7.12502
lthumb 24.6186 40.3515
rfemur -0.324721 11.1541 25.6512
rtibia 19.2507
rfoot -21.7499 -7.6541
rtoes -11.5775
lfemur -27.0201 -2.81216 -11.0792
ltibia 39.3613
lfoot -22.4693 -9.73647
ltoes -1.97542
153
root -36.3294 17.4259 -1.63603 -33.2404 82.8899 -38.9908
lowerback 15.3099 -0.623261 0.0869139
upperback 5.2946 -0.468925 2.0091
thorax -2.95469 -0.137835 2.13477
lowerneck -0.755634 2.5274 2.10686
upperneck -7.74978 3.24046 -4.44065
head -2.2054 1.7147 -1.8314
rclavicle 2.10215e-014 6.75868e-015
rhumerus -47.4765 14.1957 -84.942
rradius 41.7229
rwrist 1.47282
rhand -9.90373 -16.0294
rfingers 7.12502
rthumb 16.0764 -45.3825
lclavicle 2.10215e-014 6.75868e-015
lhumerus -51.3447 -0.137709 82.2084
lradius 53.4529
lwrist 5.74275
lhand -0.953929 11.8897
lfingers 7.12502
lthumb 24.6764 40.3186
rfemur -0.272337 11.0788 25.7582
rtibia 19.0717
rfoot -21.7039 -7.72236
rtoes -11.8666
lfemur -27.2304 -2.89355 -10.9748
ltibia 39.6668
lfoot -22.7477 -9.78617
ltoes -1.71866
154
root -36.2987 17.4209 -1.64192 -34.3982 82.9169 -40.2855
lowerback 15.2862 -0.593827 0.11064
upperback 5.31406 -0.42773 1.98163
thorax -2.92357 -0.117053 2.08477
lowerneck -0.857325 2.34863 2.08917
upperneck -7.67661 3.02053 -4.09285
head -2.17497 1.59463 -1.70877
rclavicle 6.11263e-015 -1.15295e-014
rhumerus -47.4929 14.2129 -84.9908
rradius 41.8328
rwrist 1.3723
rhand -9.96534 -16.1395
rfingers 7.12502
rthumb 16.017 -45.4974
lclavicle 6.11263e-015 -1.15295e-014
lhumerus -51.2718 -0.0978439 82.1007
lradius 53.4431
lwrist 5.58181
lhand -0.897762 11.867
lfingers 7.12502
lthumb 24.7302 40.2885
rfemur -0.203403 11.001 25.8503
rtibia 18.8758
rfoot -21.6635 -7.80072
rtoes -12.184
lfemur -27.4247 -3.00725 -10.8873
ltibia 39.9562
lfoot -23.0201 -9.8057
ltoes -1.46299
155
root -36.2652 17.4156 -1.64874 -35.5388 82.9521 -41.5683
lowerback 15.2519 -0.557498 0.119157
upperback 5.32946 -0.380485 1.94741
thorax -2.89114 -0.093467 2.03522
lowerneck -0.979738 2.14283 2.04825
upperneck -7.56608 2.76814 -3.67029
head -2.12984 1.4569 -1.55717
rclavicle -1.10325e-014 5.76476e-015
rhumerus -47.5336 14.2374 -85.0532
rradius 41.9514
rwrist 1.2433
rhand -10.0014 -16.283
rfingers 7.12502
rthumb 15.9823 -45.6437
lclavicle -1.10325e-014 5.76476e-015
lhumerus -51.1907 -0.0518987 81.984
lradius 53.4355
lwrist 5.41563
lhand -0.852032 11.8416
lfingers 7.12502
lthumb 24.774 40.2571
rfemur -0.11432 10.9035 25.9281
rtibia 18.6535
rfoot -21.6254 -7.88239
rtoes -12.5586
lfemur -27.6145 -3.15109 -10.8143
ltibia 40.2401
lfoot -23.2871 -9.79842
ltoes -1.20236
156
root -36.2291 17.4108 -1.65642 -36.6945 82.9956 -42.8721
lowerback 15.2155 -0.516812 0.119675
upperback 5.33637 -0.329473 1.90469
thorax -2.86655 -0.0681532 1.98073
lowerneck -1.11292 1.91094 1.98978
upperneck -7.42879 2.48391 -3.18024
head -2.07466 1.30233 -1.381
rclavicle 4.57205e-015 -7.15625e-015
rhumerus -47.6037 14.2705 -85.1347
rradius 42.055
rwrist 1.13521
rhand -10.0559 -16.3896
rfingers 7.12502
rthumb 15.9299 -45.7545
lclavicle 4.57205e-015 -7.15625e-015
lhumerus -51.1062 -0.00209679 81.8539
lradius 53.4289
lwrist 5.24579
lhand -0.809902 11.8
lfingers 7.12502
lthumb 24.8144 40.21
rfemur -0.0176613 10.8158 25.9935
rtibia 18.4075
rfoot -21.5851 -7.97214
rtoes -12.9618
lfemur -27.8001 -3.32649 -10.7508
ltibia 40.5173
lfoot -23.5484 -9.77297
ltoes -0.932506
157
root -36.1903 17.4054 -1.66493 -37.8861 83.0392 -44.2113
lowerback 15.176 -0.46847 0.111669
upperback 5.33931 -0.270007 1.85868
thorax -2.84464 -0.0387611 1.92622
lowerneck -1.24739 1.65546 1.91056
upperneck -7.27551 2.17059 -2.62975
head -2.01404 1.13301 -1.18298
rclavicle 1.19271e-015 2.54444e-014
rhumerus -47.6939 14.3066 -85.2256
rradius 42.1355
rwrist 1.04878
rhand -10.1141 -16.4435
rfingers 7.12502
rthumb 15.8737 -45.8128
lclavicle 1.19271e-015 2.54444e-014
lhumerus -51.0177 0.0495969 81.7176
lradius 53.4278
lwrist 5.08129
lhand -0.774245 11.7415
lfingers 7.12502
lthumb 24.8486 40.1467
rfemur 0.104091 10.717 26.0571
rtibia 18.1405
rfoot -21.5415 -8.06225
rtoes -13.4118
lfemur -27.9756 -3.52171 -10.6899
ltibia 40.7918
lfoot -23.8086 -9.74145
ltoes -0.6576
158
root -36.1485 17.3993 -1.67448 -39.0807 83.0923 -45.5505
lowerback 15.1335 -0.415067 0.0910488
upperback 5.33842 -0.206273 1.80504
thorax -2.82514 -0.00737588 1.87018
lowerneck -1.37308 1.38114 1.82191
upperneck -7.11636 1.83358 -2.03595
head -1.95225 0.952026 -0.97135
rclavicle -6.55989e-015 5.36719e-015
rhumerus -47.8077 14.3458 -85.3282
rradius 42.2027
rwrist 0.983468
rhand -10.1611 -16.4551
rfingers 7.12502
rthumb 15.8285 -45.8281
lclavicle -6.55989e-015 5.36719e-015
lhumerus -50.9328 0.0986834 81.5741
lradius 53.4377
lwrist 4.92837
lhand -0.749811 11.6663
lfingers 7.12502
lthumb 24.872 40.0683
rfemur 0.250301 10.6036 26.1067
rtibia 17.8575
rfoot -21.4973 -8.14736
rtoes -13.8894
lfemur -28.1377 -3.74296 -10.6425
ltibia 41.06
lfoot -24.0659 -9.70492
ltoes -0.378085
159
root -36.1042 17.3933 -1.68467 -40.3576 83.1471 -46.9702
lowerback 15.0932 -0.357422 0.0661756
upperback 5.33167 -0.137818 1.74849
thorax -2.81304 0.0262829 1.81284
lowerneck -1.48132 1.0954 1.73786
upperneck -6.96269 1.48147 -1.42651
head -1.89373 0.764109 -0.757741
rclavicle -1.59028e-015 -7.15625e-015
rhumerus -47.9428 14.3856 -85.4404
rradius 42.2515
rwrist 0.95107
rhand -10.197 -16.4241
rfingers 7.12502
rthumb 15.794 -45.7998
lclavicle -1.59028e-015 -7.15625e-015
lhumerus -50.854 0.141144 81.4269
lradius 53.4597
lwrist 4.79739
lhand -0.736184 11.5824
lfingers 7.12502
lthumb 24.8851 39.9826
rfemur 0.410181 10.5135 26.1575
rtibia 17.5582
rfoot -21.4444 -8.24357
rtoes -14.3773
lfemur -28.288 -3.98335 -10.5926
ltibia 41.3232
lfoot -24.3213 -9.67003
ltoes -0.102627
